<svg xmlns="http://www.w3.org/2000/svg" viewBox="0 0 1920 1080" width="1920" height="1080" role="img" aria-labelledby="board-title board-desc">
  <title id="board-title">SIGNAL WEAVE — DESKTOP EXPERIENCE BOARD</title>
  <desc id="board-desc">Eight authored states sharing one visual law; each tile represents a full 16:9 viewport.</desc>
  <defs>
    <filter id="softGlow" x="-40%" y="-40%" width="180%" height="180%">
      <feGaussianBlur stdDeviation="8" result="blur"/>
      <feMerge><feMergeNode in="blur"/><feMergeNode in="SourceGraphic"/></feMerge>
    </filter>
    <filter id="microShadow" x="-20%" y="-20%" width="140%" height="140%">
      <feDropShadow dx="0" dy="7" stdDeviation="10" flood-color="#000" flood-opacity=".25"/>
    </filter>
    <pattern id="microGrid" width="24" height="24" patternUnits="userSpaceOnUse">
      <path d="M24 0H0V24" fill="none" stroke="#F4F1E9" stroke-opacity=".055" stroke-width="1"/>
    </pattern>
    <linearGradient id="fade" x1="0" x2="1">
      <stop offset="0" stop-color="#72D7DF"/>
      <stop offset=".48" stop-color="#E65B8F"/>
      <stop offset="1" stop-color="#F2B74B"/>
    </linearGradient>
    
  </defs>
  <style>
    .kicker,.folio,.label,.micro,.state { font-family: "IBM Plex Mono", "Cascadia Mono", monospace; letter-spacing: .12em; }
    .title,.display,.word { font-family: "Arial Narrow", "Inter Tight", Arial, sans-serif; font-weight: 760; }
    .kicker { font-size: 19px; fill: #72D7DF; }
    .folio { font-size: 14px; fill: #A5A8C5; }
    .title { font-size: 54px; fill: #F4F1E9; letter-spacing: -.035em; }
    .subtitle { font: 22px Arial, sans-serif; fill: #A5A8C5; }
    .label { font-size: 13px; fill: #F4F1E9; }
    .micro { font-size: 11px; fill: #A5A8C5; }
    .state { font-size: 14px; fill: #F4F1E9; }
    .display { fill: #F4F1E9; letter-spacing: -.07em; }
  </style>
  <rect width="1920" height="1080" fill="#111226"/>
  <rect width="1920" height="1080" fill="url(#microGrid)"/>
  
    <text x="72" y="68" class="kicker">SIGNAL WEAVE · CHECKPOINT 2</text>
    <text x="72" y="130" class="title">DESKTOP EXPERIENCE BOARD</text>
    <text x="72" y="168" class="subtitle">Eight authored states sharing one visual law; each tile represents a full 16:9 viewport.</text>
    <text x="1848" y="68" text-anchor="end" class="folio">CONCEPT STUDY / NOT PUBLIC COPY</text>
  
  
      <g>
        <rect x="72" y="238" width="420" height="350" rx="16" fill="#FFFFFF" fill-opacity="0.035" stroke="#F4F1E9" stroke-opacity=".17"/>
        <rect x="86" y="252" width="392" height="258" rx="10" fill="#111226" stroke="#F4F1E9" stroke-opacity=".14"/>
        
    <g>
      <path d="M 76 303.56 C 161.68 272.1, 210.56 434.24, 258.5 320.5 S 379.76 289.04, 488 332.6" fill="none" stroke="#72D7DF" stroke-width="10" stroke-linecap="round" opacity="0.72"/><path d="M 76 342.28 C 184.24 400.36, 195.52 279.36, 198.34 364.06 S 368.48 458.44, 488 397.94" fill="none" stroke="#F2B74B" stroke-width="10" stroke-linecap="round" opacity="0.78"/><path d="M 76 407.62 C 161.68 448.76, 233.12 327.76, 258.5 407.62 S 387.28000000000003 361.64, 488 446.34000000000003" fill="none" stroke="#E65B8F" stroke-width="10" stroke-linecap="round" opacity="0.84"/><path d="M 76 448.76 C 199.28000000000003 366.48, 225.6 470.53999999999996, 318.66 364.06 S 409.84 400.36, 488 472.96000000000004" fill="none" stroke="#7E78FF" stroke-width="10" stroke-linecap="round" opacity="0.8999999999999999"/>
      <rect x="198.34" y="320.5" width="120.32000000000001" height="87.11999999999999" rx="12" fill="#111226" stroke="#72D7DF" stroke-width="2"/>
      <circle cx="258.5" cy="364.06" r="7" fill="#F2B74B" filter="url(#softGlow)"/>
    </g>
        <text x="88" y="540" class="state">01 / FIRST VIEWPORT — dormant signal</text>
        <text x="88" y="567" class="micro">Full-viewport behavior sample · 16:9</text>
      </g>
      <g>
        <rect x="524" y="238" width="420" height="350" rx="16" fill="#FFFFFF" fill-opacity="0.035" stroke="#F4F1E9" stroke-opacity=".17"/>
        <rect x="538" y="252" width="392" height="258" rx="10" fill="#111226" stroke="#F4F1E9" stroke-opacity=".14"/>
        
    <g>
      <path d="M 528 303.56 C 613.68 279.36, 662.56 434.24, 731.1800000000001 335.02 S 831.76 289.04, 940 332.6" fill="none" stroke="#72D7DF" stroke-width="10" stroke-linecap="round" opacity="0.72"/><path d="M 528 342.28 C 636.24 400.36, 647.52 279.36, 671.0200000000001 378.58 S 820.48 458.44, 940 397.94" fill="none" stroke="#F2B74B" stroke-width="10" stroke-linecap="round" opacity="0.78"/><path d="M 528 407.62 C 613.68 448.76, 685.12 327.76, 731.1800000000001 422.14 S 839.28 361.64, 940 446.34000000000003" fill="none" stroke="#E65B8F" stroke-width="10" stroke-linecap="round" opacity="0.84"/><path d="M 528 448.76 C 651.28 366.48, 677.6 470.53999999999996, 791.34 378.58 S 861.8399999999999 400.36, 940 472.96000000000004" fill="none" stroke="#7E78FF" stroke-width="10" stroke-linecap="round" opacity="0.8999999999999999"/>
      <rect x="671.0200000000001" y="335.02" width="120.32000000000001" height="87.11999999999999" rx="12" fill="#111226" stroke="#F2B74B" stroke-width="2"/>
      <circle cx="731.1800000000001" cy="378.58" r="7" fill="#E65B8F" filter="url(#softGlow)"/>
    </g>
        <text x="540" y="540" class="state">02 / SIGNATURE TRANSFORMATION — tension</text>
        <text x="540" y="567" class="micro">Full-viewport behavior sample · 16:9</text>
      </g>
      <g>
        <rect x="976" y="238" width="420" height="350" rx="16" fill="#FFFFFF" fill-opacity="0.035" stroke="#F4F1E9" stroke-opacity=".17"/>
        <rect x="990" y="252" width="392" height="258" rx="10" fill="#E7E3D3" stroke="#F4F1E9" stroke-opacity=".14"/>
        
    <g>
      <path d="M 980 303.56 C 1065.68 286.62, 1114.56 434.24, 1203.86 349.54 S 1283.76 289.04, 1392 332.6" fill="none" stroke="#72D7DF" stroke-width="10" stroke-linecap="round" opacity="0.72"/><path d="M 980 342.28 C 1088.24 400.36, 1099.52 279.36, 1143.6999999999998 393.1 S 1272.48 458.44, 1392 397.94" fill="none" stroke="#F2B74B" stroke-width="10" stroke-linecap="round" opacity="0.78"/><path d="M 980 407.62 C 1065.68 448.76, 1137.12 327.76, 1203.86 436.66 S 1291.28 361.64, 1392 446.34000000000003" fill="none" stroke="#E65B8F" stroke-width="10" stroke-linecap="round" opacity="0.84"/><path d="M 980 448.76 C 1103.28 366.48, 1129.6 470.53999999999996, 1264.02 393.1 S 1313.84 400.36, 1392 472.96000000000004" fill="none" stroke="#7E78FF" stroke-width="10" stroke-linecap="round" opacity="0.8999999999999999"/>
      <rect x="1143.6999999999998" y="349.54" width="120.32000000000001" height="87.11999999999999" rx="12" fill="#E7E3D3" stroke="#E65B8F" stroke-width="2"/>
      <circle cx="1203.86" cy="393.1" r="7" fill="#7E78FF" filter="url(#softGlow)"/>
    </g>
        <text x="992" y="540" class="state">03 / BRIGHT CHAPTER — bone interval</text>
        <text x="992" y="567" class="micro">Full-viewport behavior sample · 16:9</text>
      </g>
      <g>
        <rect x="1428" y="238" width="420" height="350" rx="16" fill="#FFFFFF" fill-opacity="0.035" stroke="#F4F1E9" stroke-opacity=".17"/>
        <rect x="1442" y="252" width="392" height="258" rx="10" fill="#111226" stroke="#F4F1E9" stroke-opacity=".14"/>
        
    <g>
      <path d="M 1432 303.56 C 1517.68 293.88, 1566.56 434.24, 1676.54 320.5 S 1735.76 289.04, 1844 332.6" fill="none" stroke="#72D7DF" stroke-width="10" stroke-linecap="round" opacity="0.72"/><path d="M 1432 342.28 C 1540.24 400.36, 1551.52 279.36, 1616.3799999999999 364.06 S 1724.48 458.44, 1844 397.94" fill="none" stroke="#F2B74B" stroke-width="10" stroke-linecap="round" opacity="0.78"/><path d="M 1432 407.62 C 1517.68 448.76, 1589.12 327.76, 1676.54 407.62 S 1743.28 361.64, 1844 446.34000000000003" fill="none" stroke="#E65B8F" stroke-width="10" stroke-linecap="round" opacity="0.84"/><path d="M 1432 448.76 C 1555.28 366.48, 1581.6 470.53999999999996, 1736.7 364.06 S 1765.84 400.36, 1844 472.96000000000004" fill="none" stroke="#7E78FF" stroke-width="10" stroke-linecap="round" opacity="0.8999999999999999"/>
      <rect x="1616.3799999999999" y="320.5" width="120.32000000000001" height="87.11999999999999" rx="12" fill="#111226" stroke="#7E78FF" stroke-width="2"/>
      <circle cx="1676.54" cy="364.06" r="7" fill="#72D7DF" filter="url(#softGlow)"/>
    </g>
        <text x="1444" y="540" class="state">04 / DARK CHAPTER — mineral depth</text>
        <text x="1444" y="567" class="micro">Full-viewport behavior sample · 16:9</text>
      </g>
      <g>
        <rect x="72" y="642" width="420" height="350" rx="16" fill="#FFFFFF" fill-opacity="0.035" stroke="#F4F1E9" stroke-opacity=".17"/>
        <rect x="86" y="656" width="392" height="258" rx="10" fill="#111226" stroke="#F4F1E9" stroke-opacity=".14"/>
        
    <g>
      <path d="M 76 707.56 C 161.68 676.1, 210.56 838.24, 258.5 739.0200000000001 S 379.76 693.04, 488 736.6" fill="none" stroke="#72D7DF" stroke-width="10" stroke-linecap="round" opacity="0.72"/><path d="M 76 746.28 C 184.24 804.36, 195.52 683.36, 198.34 782.58 S 368.48 862.44, 488 801.94" fill="none" stroke="#F2B74B" stroke-width="10" stroke-linecap="round" opacity="0.78"/><path d="M 76 811.62 C 161.68 852.76, 233.12 731.76, 258.5 826.14 S 387.28000000000003 765.64, 488 850.34" fill="none" stroke="#E65B8F" stroke-width="10" stroke-linecap="round" opacity="0.84"/><path d="M 76 852.76 C 199.28000000000003 770.48, 225.6 874.54, 318.66 782.58 S 409.84 804.36, 488 876.96" fill="none" stroke="#7E78FF" stroke-width="10" stroke-linecap="round" opacity="0.8999999999999999"/>
      <rect x="198.34" y="739.0200000000001" width="120.32000000000001" height="87.11999999999999" rx="12" fill="#111226" stroke="#72D7DF" stroke-width="2"/>
      <text x="258.5" y="782.58" text-anchor="middle" class="micro">[PROJECT IMAGE — PENDING]</text>
    </g>
        <text x="88" y="944" class="state">05 / PROJECT SELECTION — aperture focus</text>
        <text x="88" y="971" class="micro">Full-viewport behavior sample · 16:9</text>
      </g>
      <g>
        <rect x="524" y="642" width="420" height="350" rx="16" fill="#FFFFFF" fill-opacity="0.035" stroke="#F4F1E9" stroke-opacity=".17"/>
        <rect x="538" y="656" width="392" height="258" rx="10" fill="#111226" stroke="#F4F1E9" stroke-opacity=".14"/>
        
    <g>
      <path d="M 528 707.56 C 613.68 683.36, 662.56 838.24, 731.1800000000001 753.5400000000001 S 831.76 693.04, 940 736.6" fill="none" stroke="#72D7DF" stroke-width="10" stroke-linecap="round" opacity="0.72"/><path d="M 528 746.28 C 636.24 804.36, 647.52 683.36, 671.0200000000001 797.1 S 820.48 862.44, 940 801.94" fill="none" stroke="#F2B74B" stroke-width="10" stroke-linecap="round" opacity="0.78"/><path d="M 528 811.62 C 613.68 852.76, 685.12 731.76, 731.1800000000001 840.66 S 839.28 765.64, 940 850.34" fill="none" stroke="#E65B8F" stroke-width="10" stroke-linecap="round" opacity="0.84"/><path d="M 528 852.76 C 651.28 770.48, 677.6 874.54, 791.34 797.1 S 861.8399999999999 804.36, 940 876.96" fill="none" stroke="#7E78FF" stroke-width="10" stroke-linecap="round" opacity="0.8999999999999999"/>
      <rect x="671.0200000000001" y="753.5400000000001" width="120.32000000000001" height="87.11999999999999" rx="12" fill="#111226" stroke="#F2B74B" stroke-width="2"/>
      <text x="731.1800000000001" y="797.1" text-anchor="middle" class="micro">[PROJECT IMAGE — PENDING]</text>
    </g>
        <text x="540" y="944" class="state">06 / PROJECT OPENING — evidence threads</text>
        <text x="540" y="971" class="micro">Full-viewport behavior sample · 16:9</text>
      </g>
      <g>
        <rect x="976" y="642" width="420" height="350" rx="16" fill="#FFFFFF" fill-opacity="0.035" stroke="#F4F1E9" stroke-opacity=".17"/>
        <rect x="990" y="656" width="392" height="258" rx="10" fill="#111226" stroke="#F4F1E9" stroke-opacity=".14"/>
        
    <g>
      <path d="M 980 707.56 C 1065.68 690.62, 1114.56 838.24, 1203.86 724.5 S 1283.76 693.04, 1392 736.6" fill="none" stroke="#72D7DF" stroke-width="10" stroke-linecap="round" opacity="0.72"/><path d="M 980 746.28 C 1088.24 804.36, 1099.52 683.36, 1143.6999999999998 768.06 S 1272.48 862.44, 1392 801.94" fill="none" stroke="#F2B74B" stroke-width="10" stroke-linecap="round" opacity="0.78"/><path d="M 980 811.62 C 1065.68 852.76, 1137.12 731.76, 1203.86 811.6199999999999 S 1291.28 765.64, 1392 850.34" fill="none" stroke="#E65B8F" stroke-width="10" stroke-linecap="round" opacity="0.84"/><path d="M 980 852.76 C 1103.28 770.48, 1129.6 874.54, 1264.02 768.06 S 1313.84 804.36, 1392 876.96" fill="none" stroke="#7E78FF" stroke-width="10" stroke-linecap="round" opacity="0.8999999999999999"/>
      <rect x="1143.6999999999998" y="724.5" width="120.32000000000001" height="87.11999999999999" rx="12" fill="#111226" stroke="#E65B8F" stroke-width="2"/>
      <circle cx="1203.86" cy="768.06" r="7" fill="#7E78FF" filter="url(#softGlow)"/>
    </g>
        <text x="992" y="944" class="state">07 / CALM CONTACT — direct endpoints</text>
        <text x="992" y="971" class="micro">Full-viewport behavior sample · 16:9</text>
      </g>
      <g>
        <rect x="1428" y="642" width="420" height="350" rx="16" fill="#FFFFFF" fill-opacity="0.035" stroke="#F4F1E9" stroke-opacity=".17"/>
        <rect x="1442" y="656" width="392" height="258" rx="10" fill="#111226" stroke="#F4F1E9" stroke-opacity=".14"/>
        
    <g>
      <path d="M 1432 707.56 C 1517.68 697.88, 1566.56 838.24, 1676.54 739.0200000000001 S 1735.76 693.04, 1844 736.6" fill="none" stroke="#72D7DF" stroke-width="10" stroke-linecap="round" opacity="0.72"/><path d="M 1432 746.28 C 1540.24 804.36, 1551.52 683.36, 1616.3799999999999 782.58 S 1724.48 862.44, 1844 801.94" fill="none" stroke="#F2B74B" stroke-width="10" stroke-linecap="round" opacity="0.78"/><path d="M 1432 811.62 C 1517.68 852.76, 1589.12 731.76, 1676.54 826.14 S 1743.28 765.64, 1844 850.34" fill="none" stroke="#E65B8F" stroke-width="10" stroke-linecap="round" opacity="0.84"/><path d="M 1432 852.76 C 1555.28 770.48, 1581.6 874.54, 1736.7 782.58 S 1765.84 804.36, 1844 876.96" fill="none" stroke="#7E78FF" stroke-width="10" stroke-linecap="round" opacity="0.8999999999999999"/>
      <rect x="1616.3799999999999" y="739.0200000000001" width="120.32000000000001" height="87.11999999999999" rx="12" fill="#111226" stroke="#7E78FF" stroke-width="2"/>
      <circle cx="1676.54" cy="782.58" r="7" fill="#72D7DF" filter="url(#softGlow)"/>
    </g>
        <text x="1444" y="944" class="state">08 / RETURN / RECOVERY — continuity</text>
        <text x="1444" y="971" class="micro">Full-viewport behavior sample · 16:9</text>
      </g>
</svg>